# xmcd CD database file
#
# Track frame offsets:
#	150
#	20829
#	43174
#	60631
#	80382
#	100821
#	122874
#	140285
#	178211
#	199138
#	234039
#	254708
#	272042
#	289172
#
# Disc length: 4092 seconds
#
# Revision: 1
# Processed by: cddbd v1.5.1PL0 Copyright (c) Steve Scherf et al.
# Submitted via: CDex 1.51
#
DISCID=d00ffa0e
DTITLE=Madhukar, Ohm_G - Freedom Here And Now
DYEAR=1900
DGENRE=New Age
TTITLE0=freedom here and now
TTITLE1=thank you
TTITLE2=symphony of death
TTITLE3=eternity
TTITLE4=I remember
TTITLE5=no intention
TTITLE6=high frequency
TTITLE7=dancing on silence
TTITLE8=basic
TTITLE9=future balled
TTITLE10=subconsciuos
TTITLE11=valentine
TTITLE12=learning to speak
TTITLE13=I know her from the future
EXTD=
EXTT0=
EXTT1=
EXTT2=
EXTT3=
EXTT4=
EXTT5=
EXTT6=
EXTT7=
EXTT8=
EXTT9=
EXTT10=
EXTT11=
EXTT12=
EXTT13=
PLAYORDER=
